<svg version="1.1" id="Layer_1" xmlns="http://www.w3.org/2000/svg" xmlns:xlink="http://www.w3.org/1999/xlink" x="0px" y="0px"
	 width="100%" viewBox="0 0 200 200" enable-background="new 0 0 200 200" xml:space="preserve">
<path fill="#0F1729" opacity="1.000000" stroke="none" 
	d="
M119.000000,201.000000 
	C79.357826,201.000000 40.215649,201.000000 1.036737,201.000000 
	C1.036737,134.399536 1.036737,67.799034 1.036737,1.099268 
	C67.558670,1.099268 134.117538,1.099268 200.838196,1.099268 
	C200.838196,67.666351 200.838196,134.333145 200.838196,201.000000 
	C173.799316,201.000000 146.649658,201.000000 119.000000,201.000000 
M131.967758,175.385208 
	C131.986481,174.935364 132.005188,174.485535 132.335785,173.195801 
	C130.590408,172.636551 128.845047,172.077301 126.688004,171.386154 
	C126.688004,175.499374 126.688004,178.575897 126.688004,181.570099 
	C128.740463,181.570099 130.548706,181.570099 132.356934,181.570099 
	C132.407486,181.300995 132.458054,181.031876 132.508606,180.762772 
	C131.376556,180.187119 130.244507,179.611465 129.234818,179.098022 
	C130.222275,177.995102 131.088318,177.027786 131.967758,175.385208 
M92.564644,175.613739 
	C92.382919,175.484177 92.201202,175.354599 92.357178,174.625488 
	C93.854622,174.304428 95.352074,173.983383 96.849518,173.662323 
	C96.779831,173.092896 96.710136,172.523468 96.640442,171.954041 
	C94.443054,172.326660 91.614212,172.010300 90.234383,173.274948 
	C88.975075,174.429138 88.438576,177.611557 89.082825,179.341827 
	C90.374344,182.810486 93.560020,182.533173 96.776138,181.594162 
	C96.776138,179.642853 96.776138,177.890808 96.776138,176.062698 
	C95.371414,176.062698 94.216393,176.062698 92.564644,175.613739 
M124.643463,102.564362 
	C130.159607,99.602272 135.621735,96.532372 141.217316,93.728828 
	C143.603897,92.533096 146.220520,91.353951 148.818481,91.119698 
	C153.471893,90.700111 158.190323,91.001434 163.840683,91.001434 
	C162.360947,88.335190 161.601578,86.698158 160.606262,85.219994 
	C156.260178,78.765549 153.076294,72.251930 155.660721,63.981121 
	C156.530518,61.197479 155.494949,57.733921 155.019791,54.628620 
	C152.437729,37.754726 139.570038,24.532873 122.087646,20.652996 
	C105.838821,17.046885 88.490715,24.122480 78.683968,38.470875 
	C78.407974,38.636990 78.154007,38.831818 77.174690,39.042835 
	C55.151356,45.845348 43.217117,65.342155 46.954647,88.036301 
	C47.313732,90.216675 46.745228,92.846886 45.790253,94.885513 
	C43.722160,99.300362 41.124275,103.467041 38.125076,108.842903 
	C43.018616,108.842903 46.798599,109.055435 50.544548,108.789154 
	C55.234856,108.455742 58.853455,109.760765 62.699986,112.826904 
	C81.682426,127.958099 110.272697,123.171089 123.481636,102.910164 
	C123.635406,102.828369 123.789169,102.746582 124.643463,102.564362 
M130.997559,143.580170 
	C128.861664,136.409012 128.861664,136.409012 121.145157,137.619736 
	C121.145157,145.180176 121.145157,152.732513 121.145157,160.318054 
	C122.939667,160.318054 124.379036,160.318054 125.978798,160.318054 
	C126.161987,157.006424 126.333611,153.904007 126.505226,150.801590 
	C126.867477,150.785339 127.229729,150.769104 127.591980,150.752853 
	C128.571182,153.972015 129.550369,157.191162 130.497025,160.303314 
	C139.270050,161.951904 135.154343,153.004059 139.495773,150.435959 
	C139.688766,153.880371 139.866470,157.051651 140.046722,160.268372 
	C141.879227,160.268372 143.472824,160.268372 145.080688,160.268372 
	C145.080688,152.450958 145.080688,144.920563 145.080688,137.296906 
	C142.151489,137.296906 139.693359,137.296906 137.021317,137.296906 
	C135.837509,141.218262 134.679214,145.055069 133.087891,150.326294 
	C132.127045,147.410858 131.636688,145.922974 130.997559,143.580170 
M42.316063,150.037872 
	C40.078613,142.403595 36.160736,140.964737 24.462860,143.383026 
	C24.462860,150.824341 24.462860,158.226593 24.462860,165.922562 
	C26.402447,165.805450 27.987881,165.709717 29.693182,165.606750 
	C29.820232,163.611694 29.923578,161.988846 30.028015,160.348907 
	C38.269794,161.775024 41.702919,159.089279 42.316063,150.037872 
M100.106636,154.308533 
	C100.106636,156.248230 100.106636,158.187912 100.106636,160.302094 
	C102.265800,160.302094 103.845268,160.302094 105.919403,160.302094 
	C105.919403,156.907715 105.693794,153.761917 106.041542,150.680847 
	C106.163597,149.599442 107.693413,148.676926 108.580406,147.681854 
	C109.417526,148.688416 110.861259,149.630432 110.976524,150.713806 
	C111.304771,153.799164 111.091766,156.942093 111.091766,160.169006 
	C113.308922,160.169006 115.009895,160.169006 116.682640,160.169006 
	C117.629799,143.966690 116.501686,142.132584 106.070908,142.624481 
	C105.932098,140.363586 105.793159,138.100632 105.646248,135.707764 
	C103.722038,135.707764 102.141769,135.707764 100.106636,135.707764 
	C100.106636,141.775116 100.106636,147.563522 100.106636,154.308533 
M12.987686,142.843094 
	C15.264077,142.843094 17.540468,142.843094 20.003971,142.843094 
	C20.003971,141.349731 20.003971,139.749893 20.003971,138.217789 
	C13.982231,136.151413 8.079354,137.132568 6.390378,140.926285 
	C2.578537,149.488297 11.069710,150.036621 15.587656,153.137833 
	C15.400083,153.528519 15.212510,153.919189 15.024937,154.309875 
	C12.022615,154.309875 9.020293,154.309875 5.936203,154.309875 
	C5.936203,156.235367 5.936203,157.875687 5.936203,159.878250 
	C8.140084,160.110428 10.256170,160.566254 12.357046,160.504501 
	C16.312012,160.388260 20.203077,159.693695 21.236450,154.977661 
	C22.331034,149.982285 19.096432,147.851044 15.118266,146.140884 
	C13.950382,145.638824 13.176016,144.221359 12.987686,142.843094 
M192.507721,160.270248 
	C193.326447,158.751709 194.145172,157.233185 194.972061,155.699509 
	C191.070786,155.508392 188.250198,155.370209 185.429611,155.232025 
	C185.457382,154.780533 185.485138,154.329041 185.512894,153.877548 
	C187.657333,153.877548 189.814774,153.727310 191.943283,153.911392 
	C195.485184,154.217712 196.274689,152.626968 195.608353,149.447388 
	C194.660309,144.923599 191.923019,142.446426 187.414688,142.217575 
	C183.193939,142.003342 179.489594,145.288757 178.658936,149.551147 
	C177.159485,157.245331 182.722122,161.903046 192.507721,160.270248 
M45.742012,156.580200 
	C48.398323,160.505249 52.229160,161.395157 56.626820,160.755325 
	C60.025848,160.260788 61.640984,158.698578 60.233215,155.661636 
	C57.024368,155.505630 54.241692,155.370331 51.459011,155.235046 
	C51.487553,154.783890 51.516090,154.332733 51.544632,153.881577 
	C53.192074,153.881577 54.839520,153.881592 56.486965,153.881592 
	C58.065323,153.881592 59.643681,153.881577 61.145870,153.881577 
	C61.824657,147.188232 60.135422,143.836426 55.625759,142.657349 
	C51.257954,141.515350 47.357716,142.870819 45.691021,146.969742 
	C44.625832,149.589386 45.361858,152.941422 45.742012,156.580200 
M67.561607,159.188690 
	C71.366180,159.388443 75.174805,159.715271 78.969116,159.594025 
	C79.354355,159.581711 79.653412,156.872116 80.051407,155.160736 
	C76.493309,155.160736 73.593407,155.160736 70.693497,155.160736 
	C70.691521,154.702026 70.689537,154.243317 70.687561,153.784607 
	C74.010033,153.784607 77.332504,153.784607 80.766220,153.784607 
	C81.232155,148.508713 80.266708,144.546021 75.295364,142.809067 
	C71.179153,141.370911 67.762367,142.764694 65.260963,146.166046 
	C62.586063,149.803345 63.315117,154.641525 67.561607,159.188690 
M176.036743,156.269196 
	C175.973221,153.616531 176.152008,150.929932 175.786499,148.319565 
	C175.300491,144.848724 173.316696,142.447296 169.533905,142.480560 
	C166.123260,142.510559 162.715759,142.899200 159.392365,143.123886 
	C159.392365,148.955597 159.392365,154.524658 159.392365,160.536163 
	C161.375656,160.447067 163.060287,160.371399 164.885254,160.289413 
	C164.885254,157.023026 164.588974,154.325317 165.001175,151.740616 
	C165.232513,150.290024 166.635605,149.026306 167.510773,147.678391 
	C168.378891,148.979324 169.806717,150.203491 169.997910,151.597260 
	C170.388824,154.447357 170.115097,157.388611 170.115097,160.324326 
	C173.336731,160.462250 176.545822,161.917648 176.036743,156.269196 
M82.953110,152.330750 
	C83.258614,157.509415 86.442390,159.978531 91.165855,160.771973 
	C95.748749,161.541794 96.841553,160.248962 95.916779,155.257156 
	C92.955719,155.883926 89.528824,156.527313 88.976349,152.321686 
	C88.176399,146.232239 93.393814,148.249466 96.254997,147.598984 
	C97.537361,143.378998 95.495857,142.296692 92.036293,142.430984 
	C86.614319,142.641449 83.706451,145.526978 82.953110,152.330750 
M149.817307,147.562286 
	C149.817307,151.788040 149.817307,156.013809 149.817307,160.270828 
	C151.913803,160.270828 153.327408,160.270828 154.854538,160.270828 
	C154.854538,154.347107 154.854538,148.677261 154.854538,143.083282 
	C151.605911,142.423050 149.115051,142.397675 149.817307,147.562286 
M79.798935,173.084763 
	C78.897972,175.935959 77.997002,178.787170 77.295212,181.008057 
	C80.625839,181.008057 83.453316,181.008057 86.505066,181.008057 
	C85.947311,179.084732 85.181618,176.647491 84.540405,174.177933 
	C83.856018,171.542145 82.292152,171.263382 79.798935,173.084763 
M120.878220,173.000015 
	C120.818436,173.966263 120.758652,174.932510 120.692696,175.998367 
	C119.006645,174.446259 117.419006,172.984756 115.446518,171.168976 
	C115.446518,175.498398 115.446518,178.732239 115.446518,181.966064 
	C115.803734,181.992142 116.160942,182.018219 116.518158,182.044296 
	C116.878998,180.688461 117.239838,179.332626 117.618584,177.909531 
	C119.186378,179.510178 120.606537,180.960098 122.026688,182.410004 
	C123.144531,178.961502 123.227654,176.170593 123.055901,173.395447 
	C123.029808,172.973938 121.820702,172.625610 120.878220,173.000015 
M73.650772,177.535843 
	C74.329094,175.862061 75.007408,174.188278 75.773430,172.298096 
	C73.264145,172.298096 70.879166,172.298096 69.127495,172.298096 
	C69.990997,175.835098 70.746956,178.931564 71.502907,182.028046 
	C71.852203,182.107559 72.201508,182.187057 72.550804,182.266571 
	C72.916260,180.969635 73.281715,179.672714 73.650772,177.535843 
M111.679276,175.072784 
	C111.235130,173.908737 110.790977,172.744690 110.346832,171.580643 
	C109.979111,171.714050 109.611382,171.847458 109.243660,171.980881 
	C109.243660,175.327225 109.243660,178.673584 109.243660,182.019928 
	C109.876320,182.075897 110.508980,182.131882 111.141640,182.187851 
	C111.320976,180.088989 111.500320,177.990112 111.679276,175.072784 
M153.946259,140.462112 
	C154.387772,138.805527 155.179474,137.125290 155.070145,135.505905 
	C155.034592,134.979233 152.436356,133.992905 151.390518,134.345306 
	C150.347473,134.696777 148.894135,137.133881 149.163330,137.489822 
	C150.186905,138.843155 151.834610,139.724472 153.946259,140.462112 
M100.126717,176.535095 
	C100.126717,178.284088 100.126717,180.033096 100.126717,182.119217 
	C102.528831,181.946411 104.267891,181.821289 104.891869,181.776398 
	C103.899826,178.089828 103.083282,175.055435 102.266739,172.021042 
	C101.950058,171.889877 101.633369,171.758713 101.316689,171.627548 
	C100.920128,172.961578 100.523567,174.295624 100.126717,176.535095 
z"/>
<path fill="#F810B8" opacity="1.000000" stroke="none" 
	d="
M77.922073,39.055359 
	C78.154007,38.831818 78.407974,38.636990 79.313828,38.346756 
	C101.288628,36.098911 117.191147,43.641129 125.695351,60.238682 
	C133.074173,74.639824 131.605103,88.814461 123.942932,102.664795 
	C123.789169,102.746582 123.635406,102.828369 122.826889,103.026588 
	C112.560127,105.229721 103.363281,103.969162 94.588646,99.613655 
	C74.551392,89.667664 63.471836,63.161335 77.922073,39.055359 
M115.718552,67.306618 
	C113.806709,67.980019 111.659103,68.346130 110.130470,69.518982 
	C109.686989,69.859238 110.587364,73.008499 111.671112,73.941231 
	C112.511375,74.664413 115.751022,74.315071 115.919662,73.793884 
	C116.516197,71.950363 116.251511,69.828163 115.718552,67.306618 
M104.022499,73.371231 
	C103.704651,71.359444 103.700577,69.195831 102.851517,67.441063 
	C102.635345,66.994286 99.316544,67.339447 98.206131,68.262489 
	C97.341667,68.981079 97.126770,72.248894 97.604660,72.497543 
	C99.341827,73.401459 101.491676,73.512222 104.022499,73.371231 
M91.884338,68.899445 
	C89.902878,68.459656 87.904671,67.695038 85.951080,67.795769 
	C85.426262,67.822830 84.291756,70.838684 84.771812,71.847206 
	C85.392700,73.151573 87.352318,73.818703 88.735519,74.760216 
	C89.867378,73.067253 90.999229,71.374283 91.884338,68.899445 
z"/>
<path fill="#FCD001" opacity="1.000000" stroke="none" 
	d="
M77.548386,39.049095 
	C63.471836,63.161335 74.551392,89.667664 94.588646,99.613655 
	C103.363281,103.969162 112.560127,105.229721 122.589493,103.135635 
	C110.272697,123.171089 81.682426,127.958099 62.699986,112.826904 
	C58.853455,109.760765 55.234856,108.455742 50.544548,108.789154 
	C46.798599,109.055435 43.018616,108.842903 38.125076,108.842903 
	C41.124275,103.467041 43.722160,99.300362 45.790253,94.885513 
	C46.745228,92.846886 47.313732,90.216675 46.954647,88.036301 
	C43.217117,65.342155 55.151356,45.845348 77.548386,39.049095 
z"/>
<path fill="#2E3CE7" opacity="1.000000" stroke="none" 
	d="
M124.293198,102.614578 
	C131.605103,88.814461 133.074173,74.639824 125.695351,60.238682 
	C117.191147,43.641129 101.288628,36.098911 79.510696,38.208832 
	C88.490715,24.122480 105.838821,17.046885 122.087646,20.652996 
	C139.570038,24.532873 152.437729,37.754726 155.019791,54.628620 
	C155.494949,57.733921 156.530518,61.197479 155.660721,63.981121 
	C153.076294,72.251930 156.260178,78.765549 160.606262,85.219994 
	C161.601578,86.698158 162.360947,88.335190 163.840683,91.001434 
	C158.190323,91.001434 153.471893,90.700111 148.818481,91.119698 
	C146.220520,91.353951 143.603897,92.533096 141.217316,93.728828 
	C135.621735,96.532372 130.159607,99.602272 124.293198,102.614578 
z"/>
<path fill="#F2F4F5" opacity="1.000000" stroke="none" 
	d="
M131.071930,144.007629 
	C131.636688,145.922974 132.127045,147.410858 133.087891,150.326294 
	C134.679214,145.055069 135.837509,141.218262 137.021317,137.296906 
	C139.693359,137.296906 142.151489,137.296906 145.080688,137.296906 
	C145.080688,144.920563 145.080688,152.450958 145.080688,160.268372 
	C143.472824,160.268372 141.879227,160.268372 140.046722,160.268372 
	C139.866470,157.051651 139.688766,153.880371 139.495773,150.435959 
	C135.154343,153.004059 139.270050,161.951904 130.497025,160.303314 
	C129.550369,157.191162 128.571182,153.972015 127.591980,150.752853 
	C127.229729,150.769104 126.867477,150.785339 126.505226,150.801590 
	C126.333611,153.904007 126.161987,157.006424 125.978798,160.318054 
	C124.379036,160.318054 122.939667,160.318054 121.145157,160.318054 
	C121.145157,152.732513 121.145157,145.180176 121.145157,137.619736 
	C128.861664,136.409012 128.861664,136.409012 131.071930,144.007629 
z"/>
<path fill="#EFF1F3" opacity="1.000000" stroke="none" 
	d="
M42.388962,150.411285 
	C41.702919,159.089279 38.269794,161.775024 30.028015,160.348907 
	C29.923578,161.988846 29.820232,163.611694 29.693182,165.606750 
	C27.987881,165.709717 26.402447,165.805450 24.462860,165.922562 
	C24.462860,158.226593 24.462860,150.824341 24.462860,143.383026 
	C36.160736,140.964737 40.078613,142.403595 42.388962,150.411285 
M35.480633,148.141251 
	C33.768742,148.461136 31.136045,148.249344 30.569468,149.230560 
	C29.797373,150.567703 30.223791,152.972366 30.902918,154.599319 
	C31.201868,155.315475 34.287041,155.836777 34.559856,155.423950 
	C35.605297,153.841995 36.073311,151.860062 36.628162,149.989243 
	C36.727547,149.654160 36.217472,149.138290 35.480633,148.141251 
z"/>
<path fill="#E7EBED" opacity="1.000000" stroke="none" 
	d="
M100.106636,153.830231 
	C100.106636,147.563522 100.106636,141.775116 100.106636,135.707764 
	C102.141769,135.707764 103.722038,135.707764 105.646248,135.707764 
	C105.793159,138.100632 105.932098,140.363586 106.070908,142.624481 
	C116.501686,142.132584 117.629799,143.966690 116.682640,160.169006 
	C115.009895,160.169006 113.308922,160.169006 111.091766,160.169006 
	C111.091766,156.942093 111.304771,153.799164 110.976524,150.713806 
	C110.861259,149.630432 109.417526,148.688416 108.580414,147.681854 
	C107.693413,148.676926 106.163597,149.599442 106.041542,150.680847 
	C105.693794,153.761917 105.919403,156.907715 105.919403,160.302094 
	C103.845268,160.302094 102.265800,160.302094 100.106636,160.302094 
	C100.106636,158.187912 100.106636,156.248230 100.106636,153.830231 
z"/>
<path fill="#F0F2F4" opacity="1.000000" stroke="none" 
	d="
M12.604486,143.033264 
	C13.176016,144.221359 13.950382,145.638824 15.118266,146.140884 
	C19.096432,147.851044 22.331034,149.982285 21.236450,154.977661 
	C20.203077,159.693695 16.312012,160.388260 12.357046,160.504501 
	C10.256170,160.566254 8.140084,160.110428 5.936203,159.878250 
	C5.936203,157.875687 5.936203,156.235367 5.936203,154.309875 
	C9.020293,154.309875 12.022615,154.309875 15.024937,154.309875 
	C15.212510,153.919189 15.400083,153.528519 15.587656,153.137833 
	C11.069710,150.036621 2.578537,149.488297 6.390378,140.926285 
	C8.079354,137.132568 13.982231,136.151413 20.003971,138.217789 
	C20.003971,139.749893 20.003971,141.349731 20.003971,142.843094 
	C17.540468,142.843094 15.264077,142.843094 12.604486,143.033264 
z"/>
<path fill="#EDF0F1" opacity="1.000000" stroke="none" 
	d="
M192.116180,160.380798 
	C182.722122,161.903046 177.159485,157.245331 178.658936,149.551147 
	C179.489594,145.288757 183.193939,142.003342 187.414688,142.217575 
	C191.923019,142.446426 194.660309,144.923599 195.608353,149.447388 
	C196.274689,152.626968 195.485184,154.217712 191.943283,153.911392 
	C189.814774,153.727310 187.657333,153.877548 185.512894,153.877548 
	C185.485138,154.329041 185.457382,154.780533 185.429611,155.232025 
	C188.250198,155.370209 191.070786,155.508392 194.972061,155.699509 
	C194.145172,157.233185 193.326447,158.751709 192.116180,160.380798 
z"/>
<path fill="#ECEEF0" opacity="1.000000" stroke="none" 
	d="
M45.516182,156.272644 
	C45.361858,152.941422 44.625832,149.589386 45.691021,146.969742 
	C47.357716,142.870819 51.257954,141.515350 55.625759,142.657349 
	C60.135422,143.836426 61.824657,147.188232 61.145870,153.881577 
	C59.643681,153.881577 58.065323,153.881592 56.486965,153.881592 
	C54.839520,153.881592 53.192074,153.881577 51.544632,153.881577 
	C51.516090,154.332733 51.487553,154.783890 51.459011,155.235046 
	C54.241692,155.370331 57.024368,155.505630 60.233215,155.661636 
	C61.640984,158.698578 60.025848,160.260788 56.626820,160.755325 
	C52.229160,161.395157 48.398323,160.505249 45.516182,156.272644 
z"/>
<path fill="#F0F2F3" opacity="1.000000" stroke="none" 
	d="
M67.241669,158.980209 
	C63.315117,154.641525 62.586063,149.803345 65.260963,146.166046 
	C67.762367,142.764694 71.179153,141.370911 75.295364,142.809067 
	C80.266708,144.546021 81.232155,148.508713 80.766220,153.784607 
	C77.332504,153.784607 74.010033,153.784607 70.687561,153.784607 
	C70.689537,154.243317 70.691521,154.702026 70.693497,155.160736 
	C73.593407,155.160736 76.493309,155.160736 80.051407,155.160736 
	C79.653412,156.872116 79.354355,159.581711 78.969116,159.594025 
	C75.174805,159.715271 71.366180,159.388443 67.241669,158.980209 
z"/>
<path fill="#EBEEF0" opacity="1.000000" stroke="none" 
	d="
M176.036713,156.720795 
	C176.545822,161.917648 173.336731,160.462250 170.115097,160.324326 
	C170.115097,157.388611 170.388824,154.447357 169.997910,151.597260 
	C169.806717,150.203491 168.378891,148.979324 167.510773,147.678391 
	C166.635605,149.026306 165.232513,150.290024 165.001175,151.740616 
	C164.588974,154.325317 164.885254,157.023026 164.885254,160.289413 
	C163.060287,160.371399 161.375656,160.447067 159.392365,160.536163 
	C159.392365,154.524658 159.392365,148.955597 159.392365,143.123886 
	C162.715759,142.899200 166.123260,142.510559 169.533905,142.480560 
	C173.316696,142.447296 175.300491,144.848724 175.786499,148.319565 
	C176.152008,150.929932 175.973221,153.616531 176.036713,156.720795 
z"/>
<path fill="#EAECEE" opacity="1.000000" stroke="none" 
	d="
M82.941383,151.922302 
	C83.706451,145.526978 86.614319,142.641449 92.036293,142.430984 
	C95.495857,142.296692 97.537361,143.378998 96.254997,147.598984 
	C93.393814,148.249466 88.176399,146.232239 88.976349,152.321686 
	C89.528824,156.527313 92.955719,155.883926 95.916779,155.257156 
	C96.841553,160.248962 95.748749,161.541794 91.165855,160.771973 
	C86.442390,159.978531 83.258614,157.509415 82.941383,151.922302 
z"/>
<path fill="#F8F9FA" opacity="1.000000" stroke="none" 
	d="
M149.817383,147.073517 
	C149.115051,142.397675 151.605911,142.423050 154.854538,143.083282 
	C154.854538,148.677261 154.854538,154.347107 154.854538,160.270828 
	C153.327408,160.270828 151.913803,160.270828 149.817307,160.270828 
	C149.817307,156.013809 149.817307,151.788040 149.817383,147.073517 
z"/>
<path fill="#EFC804" opacity="1.000000" stroke="none" 
	d="
M93.061371,176.062698 
	C94.216393,176.062698 95.371414,176.062698 96.776138,176.062698 
	C96.776138,177.890808 96.776138,179.642853 96.776138,181.594162 
	C93.560020,182.533173 90.374344,182.810486 89.082825,179.341827 
	C88.438576,177.611557 88.975075,174.429138 90.234383,173.274948 
	C91.614212,172.010300 94.443054,172.326660 96.640442,171.954041 
	C96.710136,172.523468 96.779831,173.092896 96.849518,173.662323 
	C95.352074,173.983383 93.854622,174.304428 91.905479,175.070282 
	C91.853775,176.795853 92.253777,178.076614 92.847260,179.509567 
	C93.229057,179.267853 93.417358,178.873947 93.425644,178.212982 
	C93.184204,177.318176 93.122787,176.690445 93.061371,176.062698 
z"/>
<path fill="#EFC804" opacity="1.000000" stroke="none" 
	d="
M79.957619,172.712646 
	C82.292152,171.263382 83.856018,171.542145 84.540405,174.177933 
	C85.181618,176.647491 85.947311,179.084732 86.505066,181.008057 
	C83.453316,181.008057 80.625839,181.008057 77.295212,181.008057 
	C77.997002,178.787170 78.897972,175.935959 79.957619,172.712646 
z"/>
<path fill="#F7CE02" opacity="1.000000" stroke="none" 
	d="
M121.018501,172.621735 
	C121.820702,172.625610 123.029808,172.973938 123.055901,173.395447 
	C123.227654,176.170593 123.144531,178.961502 122.026688,182.410004 
	C120.606537,180.960098 119.186378,179.510178 117.618584,177.909531 
	C117.239838,179.332626 116.878998,180.688461 116.518158,182.044296 
	C116.160942,182.018219 115.803734,181.992142 115.446518,181.966064 
	C115.446518,178.732239 115.446518,175.498398 115.446518,171.168976 
	C117.419006,172.984756 119.006645,174.446259 120.692696,175.998367 
	C120.758652,174.932510 120.818436,173.966263 121.018501,172.621735 
z"/>
<path fill="#DDBB08" opacity="1.000000" stroke="none" 
	d="
M73.648972,177.955811 
	C73.281715,179.672714 72.916260,180.969635 72.550804,182.266571 
	C72.201508,182.187057 71.852203,182.107559 71.502907,182.028046 
	C70.746956,178.931564 69.990997,175.835098 69.127495,172.298096 
	C70.879166,172.298096 73.264145,172.298096 75.773430,172.298096 
	C75.007408,174.188278 74.329094,175.862061 73.648972,177.955811 
z"/>
<path fill="#F7CE02" opacity="1.000000" stroke="none" 
	d="
M131.954346,176.060455 
	C131.088318,177.027786 130.222275,177.995102 129.234818,179.098022 
	C130.244507,179.611465 131.376556,180.187119 132.508606,180.762772 
	C132.458054,181.031876 132.407486,181.300995 132.356934,181.570099 
	C130.548706,181.570099 128.740463,181.570099 126.688004,181.570099 
	C126.688004,178.575897 126.688004,175.499374 126.688004,171.386154 
	C128.845047,172.077301 130.590408,172.636551 131.798965,173.586243 
	C130.561478,174.355072 129.860794,174.733444 129.160126,175.111816 
	C130.091537,175.428024 131.022934,175.744232 131.954346,176.060455 
z"/>
<path fill="#D5B60A" opacity="1.000000" stroke="none" 
	d="
M111.679474,175.482025 
	C111.500320,177.990112 111.320976,180.088989 111.141640,182.187851 
	C110.508980,182.131882 109.876320,182.075897 109.243660,182.019928 
	C109.243660,178.673584 109.243660,175.327225 109.243660,171.980881 
	C109.611382,171.847458 109.979111,171.714050 110.346832,171.580643 
	C110.790977,172.744690 111.235130,173.908737 111.679474,175.482025 
z"/>
<path fill="#F2F4F5" opacity="1.000000" stroke="none" 
	d="
M153.597641,140.622162 
	C151.834610,139.724472 150.186905,138.843155 149.163330,137.489822 
	C148.894135,137.133881 150.347473,134.696777 151.390518,134.345306 
	C152.436356,133.992905 155.034592,134.979233 155.070145,135.505905 
	C155.179474,137.125290 154.387772,138.805527 153.597641,140.622162 
z"/>
<path fill="#EFC804" opacity="1.000000" stroke="none" 
	d="
M100.126862,176.082367 
	C100.523567,174.295624 100.920128,172.961578 101.316689,171.627548 
	C101.633369,171.758713 101.950058,171.889877 102.266739,172.021042 
	C103.083282,175.055435 103.899826,178.089828 104.891869,181.776398 
	C104.267891,181.821289 102.528831,181.946411 100.126717,182.119217 
	C100.126717,180.033096 100.126717,178.284088 100.126862,176.082367 
z"/>
<path fill="#5A6127" opacity="1.000000" stroke="none" 
	d="
M131.961060,175.722839 
	C131.022934,175.744232 130.091537,175.428024 129.160126,175.111816 
	C129.860794,174.733444 130.561478,174.355072 131.643036,174.006195 
	C132.005188,174.485535 131.986481,174.935364 131.961060,175.722839 
z"/>
<path fill="#FFF0FA" opacity="1.000000" stroke="none" 
	d="
M116.015915,67.559113 
	C116.251511,69.828163 116.516197,71.950363 115.919662,73.793884 
	C115.751022,74.315071 112.511375,74.664413 111.671112,73.941231 
	C110.587364,73.008499 109.686989,69.859238 110.130470,69.518982 
	C111.659103,68.346130 113.806709,67.980019 116.015915,67.559113 
z"/>
<path fill="#FFF0FA" opacity="1.000000" stroke="none" 
	d="
M103.754204,73.646652 
	C101.491676,73.512222 99.341827,73.401459 97.604660,72.497543 
	C97.126770,72.248894 97.341667,68.981079 98.206131,68.262489 
	C99.316544,67.339447 102.635345,66.994286 102.851517,67.441063 
	C103.700577,69.195831 103.704651,71.359444 103.754204,73.646652 
z"/>
<path fill="#FFF0FA" opacity="1.000000" stroke="none" 
	d="
M92.007706,69.290375 
	C90.999229,71.374283 89.867378,73.067253 88.735519,74.760216 
	C87.352318,73.818703 85.392700,73.151573 84.771812,71.847206 
	C84.291756,70.838684 85.426262,67.822830 85.951080,67.795769 
	C87.904671,67.695038 89.902878,68.459656 92.007706,69.290375 
z"/>
<path fill="#15354B" opacity="1.000000" stroke="none" 
	d="
M35.734718,148.423584 
	C36.217472,149.138290 36.727547,149.654160 36.628162,149.989243 
	C36.073311,151.860062 35.605297,153.841995 34.559856,155.423950 
	C34.287041,155.836777 31.201868,155.315475 30.902918,154.599319 
	C30.223791,152.972366 29.797373,150.567703 30.569468,149.230560 
	C31.136045,148.249344 33.768742,148.461136 35.734718,148.423584 
z"/>
<path fill="#01243C" opacity="1.000000" stroke="none" 
	d="
M92.653770,179.357376 
	C92.253777,178.076614 91.853775,176.795853 91.736633,175.370056 
	C92.201202,175.354599 92.382919,175.484177 92.813004,175.838226 
	C93.122787,176.690445 93.184204,177.318176 93.182442,178.426636 
	C92.964096,179.057373 92.808929,179.207367 92.653770,179.357376 
z"/>
<path fill="#01243C" opacity="1.000000" stroke="none" 
	d="
M93.362457,178.693695 
	C93.417358,178.873947 93.229057,179.267853 92.847260,179.509567 
	C92.808929,179.207367 92.964096,179.057373 93.362457,178.693695 
z"/>
</svg>